
Diesels in The Blue Mountains Vol 1

Volume 1: La Grande to Huntington. Dramatic footage covers all the action from La Grande to Huntington. Climbing out of the Grande Ronde Valley and heading past Oxman Curve and through Burnt River Canyon, Dash 8-40CWs, SD40-2s, C36-7s, and SD60s take on the 2.2 percent grades of UP's roughest helper district. Trailer trains, container trains, doublestacks, grain, soda ash, auto racks, and Amtrak are seen on this exciting journey.




Format                                   : AVI
Format/Info                              : Audio Video Interleave
File size                                : 699 MiB
Duration                                 : 58mn 57s
Overall bit rate                         : 1 656 Kbps
Writing application                      : VirtualDubMod 1.5.4.1 (build 2178/release)
Writing library                          : VirtualDubMod build 2178/release

Video
ID                                       : 0
Format                                   : MPEG-4 Visual
Format profile                           : Advanced Simple@L5
Format settings, BVOP                    : 1
Format settings, QPel                    : No
Format settings, GMC                     : No warppoints
Format settings, Matrix                  : Custom
Codec ID                                 : XVID
Codec ID/Hint                            : XviD
Duration                                 : 58mn 57s
Bit rate                                 : 1 393 Kbps
Width                                    : 640 pixels
Height                                   : 480 pixels
Display aspect ratio                     : 4:3
Frame rate                               : 29.970 fps
Color space                              : YUV
Chroma subsampling                       : 4:2:0
Bit depth                                : 8 bits
Scan type                                : Progressive
Compression mode                         : Lossy
Bits/(Pixel*Frame)                       : 0.151
Stream size                              : 587 MiB (84%)
Writing library                          : XviD 1.2.0.dev47 (UTC 2006-11-01)

Audio
ID                                       : 1
Format                                   : AC-3
Format/Info                              : Audio Coding 3
Mode extension                           : CM (complete main)
Codec ID                                 : 2000
Duration                                 : 58mn 57s
Bit rate mode                            : Constant
Bit rate                                 : 256 Kbps
Channel(s)                               : 2 channels
Channel positions                        : Front: L R
Sampling rate                            : 48.0 KHz
Bit depth                                : 16 bits
Compression mode                         : Lossy
Delay relative to video                  : 8ms
Stream size                              : 108 MiB (15%)
Alignment                                : Split accross interleaves
Interleave, duration                     : 96 ms (2.88 video frames)
Interleave, preload duration             : 96 ms

